<svg width="48" height="48" viewBox="0 0 48 48" fill="none" xmlns="http://www.w3.org/2000/svg">
<circle cx="24" cy="24" r="24" fill="#B6E851"/>
<path d="M19.88 34.37H21.89V21.8C21.89 20.84 21.77 19.98 21.53 19.22C21.29 18.46 20.96 17.82 20.54 17.3C20.12 16.78 19.61 16.38 19.01 16.1C18.43 15.82 17.79 15.68 17.09 15.68C16.39 15.68 15.74 15.82 15.14 16.1C14.56 16.38 14.06 16.78 13.64 17.3C13.22 17.82 12.89 18.46 12.65 19.22C12.41 19.98 12.29 20.84 12.29 21.8V34.37H14.3V35H6.65V34.37H8.72V25.31C8.72 24.19 8.76 23.18 8.84 22.28C8.92 21.36 9.15 20.52 9.53 19.76C9.89 19.02 10.34 18.36 10.88 17.78C11.42 17.2 12.02 16.71 12.68 16.31C13.34 15.91 14.04 15.6 14.78 15.38C15.54 15.16 16.32 15.05 17.12 15.05C17.88 15.05 18.65 15.17 19.43 15.41C20.21 15.63 20.92 15.94 21.56 16.34C21.96 16.6 22.33 16.89 22.67 17.21C23.03 17.51 23.35 17.84 23.63 18.2C24.65 17.1 25.7 16.3 26.78 15.8C27.88 15.3 29.05 15.05 30.29 15.05C31.13 15.05 31.97 15.18 32.81 15.44C33.65 15.7 34.42 16.09 35.12 16.61C36.3 17.47 37.18 18.49 37.76 19.67C38.34 20.85 38.63 22.28 38.63 23.96V34.37H40.7V35H33.05V34.37H35.06V22.64C35.06 21.42 34.97 20.41 34.79 19.61C34.61 18.81 34.3 18.1 33.86 17.48C33.48 16.94 32.97 16.51 32.33 16.19C31.71 15.85 30.95 15.68 30.05 15.68C28.85 15.68 27.72 15.97 26.66 16.55C25.6 17.13 24.72 17.87 24.02 18.77C24.48 19.35 24.83 20.1 25.07 21.02C25.33 21.94 25.46 22.96 25.46 24.08V34.37H27.47V35H19.88V34.37Z" fill="#6D549E"/>
</svg>
